HIERARCHY
ROOT Hips
{
	OFFSET 0.000000 0.000000 0.000000 
	CHANNELS 6 Xposition Yposition Zposition Zrotation Yrotation Xrotation
	JOINT LeftUpLeg
	{
		OFFSET 1.363060 -1.794630 0.839290 
		CHANNELS 3 Zrotation Yrotation Xrotation
		JOINT LeftLeg
		{
			OFFSET 2.448110 -6.726130 0.000000 
			CHANNELS 3 Zrotation Yrotation Xrotation
			JOINT LeftFoot
			{
				OFFSET 2.562200 -7.039590 0.000000 
				CHANNELS 3 Zrotation Yrotation Xrotation
				JOINT LeftToeBase
				{
					OFFSET 0.157640 -0.433110 2.322550 
					CHANNELS 3 Zrotation Yrotation Xrotation
					End Site
					{
						OFFSET 0.000000 0.000000 0.000000 
					}
				}
			}
		}
	}
	JOINT RightUpLeg
	{
		OFFSET -1.305520 -1.794630 0.839290 
		CHANNELS 3 Zrotation Yrotation Xrotation
		JOINT RightLeg
		{
			OFFSET -2.542530 -6.985550 0.000000 
			CHANNELS 3 Zrotation Yrotation Xrotation
			JOINT RightFoot
			{
				OFFSET -2.568260 -7.056230 0.000000 
				CHANNELS 3 Zrotation Yrotation Xrotation
				JOINT RightToeBase
				{
					OFFSET -0.164730 -0.452590 2.363150 
					CHANNELS 3 Zrotation Yrotation Xrotation
					End Site
					{
						OFFSET 0.000000 0.000000 0.000000 
					}
				}
			}
		}
	}
	JOINT Spine
	{
		OFFSET 0.028270 2.035590 -0.193380 
		CHANNELS 3 Zrotation Yrotation Xrotation
		JOINT Spine1
		{
			OFFSET 0.056720 2.048850 -0.042750 
			CHANNELS 3 Zrotation Yrotation Xrotation
			JOINT Neck1
			{
				OFFSET -0.054170 1.746240 0.172020 
				CHANNELS 3 Zrotation Yrotation Xrotation
				JOINT Head
				{
					OFFSET 0.104070 1.761360 -0.123970 
					CHANNELS 3 Zrotation Yrotation Xrotation
					End Site
					{
						OFFSET 0.000000 0.000000 0.000000 
					}
				}
			}
			JOINT LeftArm
			{
				OFFSET 3.362410 1.200890 -0.311210 
				CHANNELS 3 Zrotation Yrotation Xrotation
				JOINT LeftForeArm
				{
					OFFSET 4.983000 -0.000000 -0.000000 
					CHANNELS 3 Zrotation Yrotation Xrotation
					JOINT LeftHand
					{
						OFFSET 3.483560 -0.000000 -0.000000 
						CHANNELS 3 Zrotation Yrotation Xrotation
						JOINT LeftHandIndex1
						{
							OFFSET 0.715260 -0.000000 -0.000000 
							CHANNELS 3 Zrotation Yrotation Xrotation
							End Site
							{
								OFFSET 0.000000 0.000000 0.000000 
							}
						}
					}
				}
			}
			JOINT RightArm
			{
				OFFSET -3.136600 1.374050 -0.404650 
				CHANNELS 3 Zrotation Yrotation Xrotation
				JOINT RightForeArm
				{
					OFFSET -5.241900 -0.000000 -0.000000 
					CHANNELS 3 Zrotation Yrotation Xrotation
					JOINT RightHand
					{
						OFFSET -3.444170 -0.000000 -0.000000 
						CHANNELS 3 Zrotation Yrotation Xrotation
						JOINT RightHandIndex1
						{
							OFFSET -0.622530 -0.000000 -0.000000 
							CHANNELS 3 Zrotation Yrotation Xrotation
							End Site
							{
								OFFSET 0.000000 0.000000 0.000000 
							}
						}
					}
				}
			}
		}
	}
}
MOTION
Frames: 13
Frame Time: 0.041667
-0.932938 18.288635 5.924870 -3.251841 -1.731843 -2.746753 -10.478549 -7.082968 -3.020291 1.172813 7.356694 24.198532 -0.464150 4.940886 -11.537353 8.729300 -16.630400 -55.149300 18.376324 -6.915518 7.744529 0.405308 0.962552 1.792817 0.286350 -2.697562 -7.530023 -0.218200 3.007200 -8.298800 0.918392 1.603040 22.090400 -2.242094 1.556596 -18.339299 6.199263 -5.445985 30.846188 0.960900 -1.630600 9.993400 -93.324308 8.151853 27.525802 23.942072 -33.314162 -6.133815 0.446680 0.051932 12.015318 -7.125000 0.000000 0.000000 95.321073 -12.463027 19.749882 -31.937869 40.137438 -9.172858 0.917730 -3.042531 16.548484 7.125000 0.000000 0.000000 
-0.931168 18.288733 5.922902 -3.242995 -1.741883 -2.733041 -10.493979 -7.100640 -3.032276 1.172490 7.355190 24.194962 -0.464040 4.935542 -11.519770 8.708900 -16.616700 -55.077800 18.366928 -6.895568 7.719321 0.405532 0.962541 1.792508 0.287520 -2.704626 -7.531470 -0.218300 3.007600 -8.300000 0.911315 1.610347 22.132506 -2.224123 1.563267 -18.353434 6.076689 -5.403914 30.857883 0.928500 -1.622000 9.997800 -93.347899 8.138530 27.522605 23.934167 -33.307598 -6.131345 0.447726 0.051324 12.031786 -7.125000 0.000000 0.000000 95.297201 -12.437753 19.787026 -31.932484 40.138790 -9.173158 0.920361 -3.043984 16.491065 7.125000 0.000000 0.000000 
-0.929791 18.288930 5.921821 -3.212705 -1.758470 -2.721440 -10.525038 -7.098674 -3.038612 1.169848 7.351359 24.182047 -0.464640 4.938175 -11.520016 8.701400 -16.611700 -55.051500 18.344649 -6.871407 7.699147 0.405975 0.962666 1.792225 0.291179 -2.725660 -7.529722 -0.224800 3.052100 -8.423700 0.820221 1.619732 22.154360 -2.176112 1.568266 -18.369719 5.831086 -5.327442 30.810597 0.860100 -1.610800 9.975000 -93.367801 8.127665 27.450943 23.920091 -33.291996 -6.125031 0.447367 0.048743 12.114191 -7.125000 0.000000 0.000000 95.294946 -12.414272 19.831906 -31.902025 40.123411 -9.163165 0.913202 -3.046373 16.444653 7.125000 0.000000 0.000000 
-0.928610 18.289323 5.921034 -3.177231 -1.767865 -2.712777 -10.555838 -7.081020 -3.051310 1.166058 7.346267 24.164397 -0.469181 4.956936 -11.522965 8.727500 -16.629100 -55.143000 18.314908 -6.857620 7.685951 0.406085 0.963081 1.792224 0.293126 -2.734613 -7.524080 -0.226800 3.065600 -8.461400 0.718986 1.633003 22.181718 -2.142211 1.572751 -18.385549 5.699971 -5.282971 30.824878 0.824400 -1.601800 9.978600 -93.388867 8.106346 27.374587 23.904284 -33.276824 -6.117314 0.445747 0.044771 12.198694 -7.125000 0.000000 0.000000 95.309788 -12.392848 19.848055 -31.871744 40.108844 -9.155508 0.900125 -3.048858 16.396517 7.125000 0.000000 0.000000 
-0.927233 18.289618 5.920345 -3.140257 -1.760833 -2.715792 -10.591197 -7.079992 -3.044995 1.162807 7.340813 24.147737 -0.471924 4.967036 -11.520111 8.732900 -16.632800 -55.161900 18.271405 -6.863678 7.685827 0.405616 0.963454 1.792580 0.290546 -2.717790 -7.524231 -0.219700 3.017400 -8.327300 0.649485 1.637265 22.203801 -2.119807 1.574282 -18.404714 5.672371 -5.270923 30.860064 0.819400 -1.598800 9.990300 -93.420985 8.087479 27.310060 23.884989 -33.260023 -6.107290 0.443359 0.043344 12.237513 -7.125000 0.000000 0.000000 95.314978 -12.407934 19.837677 -31.889893 40.126496 -9.166077 0.899964 -3.048746 16.369261 7.125000 0.000000 0.000000 
-0.925758 18.289422 5.920148 -3.115951 -1.759365 -2.721626 -10.618649 -7.096825 -3.021006 1.159960 7.336295 24.133935 -0.467409 4.957702 -11.549265 8.707900 -16.616000 -55.074300 18.242438 -6.865569 7.689977 0.405240 0.963747 1.792710 0.290458 -2.710810 -7.508887 -0.215500 2.988900 -8.247800 0.582876 1.637450 22.209911 -2.101592 1.572835 -18.418439 5.711854 -5.272535 30.794612 0.830200 -1.597400 9.966800 -93.443292 8.073767 27.213710 23.852284 -33.228712 -6.092500 0.442473 0.041088 12.286195 -7.125000 0.000000 0.000000 95.325111 -12.440505 19.833091 -31.927386 40.156503 -9.180461 0.911350 -3.047454 16.371079 7.125000 0.000000 0.000000 
-0.924774 18.289422 5.920837 -3.098399 -1.775917 -2.729797 -10.631012 -7.099358 -3.006262 1.158194 7.333820 24.125772 -0.462173 4.945682 -11.579360 8.702700 -16.612500 -55.056100 18.229308 -6.851615 7.697965 0.405337 0.964882 1.793071 0.291523 -2.713463 -7.503423 -0.218300 3.007600 -8.300000 0.480565 1.663754 22.275046 -2.095279 1.580576 -18.418579 5.804670 -5.298694 30.701480 0.851300 -1.601500 9.944600 -93.442027 8.045596 27.163901 23.828247 -33.208717 -6.082916 0.442835 0.038125 12.328771 -7.125000 0.000000 0.000000 95.358347 -12.442404 19.839540 -31.953392 40.184574 -9.193094 0.918156 -3.047856 16.335746 7.125000 0.000000 0.000000 
-0.924381 18.290307 5.921132 -3.088902 -1.773416 -2.725522 -10.638748 -7.102991 -3.018008 1.158448 7.333592 24.127173 -0.462325 4.946916 -11.582906 8.719900 -16.624100 -55.116500 18.221781 -6.851575 7.689535 0.405599 0.965566 1.793282 0.292806 -2.723879 -7.512807 -0.228500 3.076800 -8.492700 0.471696 1.673175 22.355211 -2.103715 1.585963 -18.416634 5.879308 -5.298798 30.641897 0.877900 -1.597900 9.938400 -93.458181 8.016586 27.149639 23.827030 -33.214050 -6.083395 0.442676 0.037032 12.347990 -7.125000 0.000000 0.000000 95.364201 -12.432912 19.864971 -31.985995 40.220113 -9.215043 0.922677 -3.049790 16.278196 7.125000 0.000000 0.000000 
-0.923889 18.290504 5.920345 -3.092261 -1.748294 -2.715179 -10.638383 -7.095756 -3.046098 1.161006 7.335015 24.134362 -0.456022 4.914885 -11.556979 8.729900 -16.630800 -55.151400 18.221195 -6.870944 7.669447 0.405653 0.965565 1.793147 0.295781 -2.739389 -7.506494 -0.231900 3.099800 -8.556600 0.529781 1.653022 22.392516 -2.115018 1.579309 -18.424314 5.852171 -5.251789 30.548338 0.881600 -1.584700 9.912400 -93.489901 7.997092 27.100345 23.815666 -33.206831 -6.079153 0.442464 0.035936 12.395328 -7.125000 0.000000 0.000000 95.346574 -12.419107 19.899559 -31.987119 40.223678 -9.217300 0.924385 -3.050480 16.283630 7.125000 0.000000 0.000000 
-0.922315 18.290602 5.920837 -3.065352 -1.753760 -2.727926 -10.657605 -7.066991 -3.054292 1.164288 7.337781 24.143908 -0.452816 4.889036 -11.504689 8.719300 -16.623600 -55.114100 18.192979 -6.866534 7.673378 0.405452 0.966783 1.793586 0.296066 -2.735029 -7.494519 -0.222500 3.036100 -8.379300 0.424068 1.673337 22.464331 -2.092408 1.585095 -18.436131 5.706082 -5.216856 30.416240 0.837500 -1.585700 9.872000 -93.485604 7.961887 27.079961 23.789948 -33.182889 -6.067633 0.442252 0.033623 12.434341 -7.125000 0.000000 0.000000 95.370246 -12.381104 19.902972 -31.952608 40.201968 -9.197585 0.918484 -3.049990 16.310239 7.125000 0.000000 0.000000 
-0.921332 18.290504 5.921525 -3.028566 -1.768537 -2.731071 -10.690543 -7.059949 -3.054875 1.165377 7.342809 24.155660 -0.461221 4.919443 -11.493113 8.716700 -16.621900 -55.105200 18.159449 -6.852470 7.677215 0.405299 0.967258 1.793818 0.295168 -2.727134 -7.490290 -0.220700 3.024100 -8.345800 0.300885 1.714331 22.463524 -2.062103 1.601598 -18.451651 5.594465 -5.216630 30.380142 0.799500 -1.596500 9.858200 -93.456669 7.960295 27.101292 23.785518 -33.176412 -6.064336 0.440883 0.030940 12.451828 -7.125000 0.000000 0.000000 95.419265 -12.377691 19.855693 -31.933661 40.189460 -9.183307 0.912317 -3.048133 16.313726 7.125000 0.000000 0.000000 
-0.920741 18.289717 5.921034 -3.050075 -1.775667 -2.715898 -10.674548 -7.063010 -3.063044 1.166566 7.350003 24.170927 -0.460507 4.927628 -11.529212 8.723000 -16.626100 -55.127100 18.181496 -6.846479 7.672944 0.405391 0.966100 1.793436 0.294667 -2.727050 -7.494485 -0.221800 3.031900 -8.367700 0.347135 1.737269 22.338210 -2.090609 1.609092 -18.482063 5.533205 -5.222050 30.418809 0.781200 -1.605300 9.857800 -93.430421 8.010735 27.131112 23.793211 -33.180780 -6.067334 0.440046 0.028460 12.478325 -7.125000 0.000000 0.000000 95.463028 -12.422360 19.775710 -31.930705 40.178504 -9.172774 0.910323 -3.044305 16.346968 7.125000 0.000000 0.000000 
-0.919758 18.289422 5.920542 -3.096102 -1.797062 -2.704770 -10.623596 -7.056593 -3.081516 1.169168 7.358062 24.187583 -0.458890 4.923495 -11.532221 8.720500 -16.624400 -55.118300 18.234620 -6.830172 7.672590 0.405804 0.966344 1.793561 0.294046 -2.727314 -7.504811 -0.217000 2.998900 -8.275800 0.343723 1.765853 22.286209 -2.142047 1.610075 -18.502436 5.569278 -5.247801 30.426774 0.783900 -1.611300 9.857900 -93.390364 8.004922 27.152510 23.764871 -33.153056 -6.057169 0.442286 0.024257 12.500481 -7.125000 0.000000 0.000000 95.513814 -12.428433 19.722998 -31.933119 40.179651 -9.169099 0.913430 -3.042812 16.402636 7.125000 0.000000 0.000000 
